HIERARCHY
ROOT hip
{
  OFFSET 0 0 0
  CHANNELS 6 Xposition Yposition Zposition Zrotation Yrotation Xrotation
  JOINT abdomen
  {
    OFFSET 0 20.6881 -0.73152
    CHANNELS 3 Zrotation Xrotation Yrotation
    JOINT chest
    {
      OFFSET 0 11.7043 -0.48768
      CHANNELS 3 Zrotation Xrotation Yrotation
      JOINT neck
      {
        OFFSET 0 22.1894 -2.19456
        CHANNELS 3 Zrotation Xrotation Yrotation
        JOINT head
        {
          OFFSET -0.24384 7.07133 1.2192
          CHANNELS 3 Zrotation Xrotation Yrotation
          JOINT leftEye
          {
            OFFSET 4.14528 8.04674 8.04672
            CHANNELS 3 Zrotation Xrotation Yrotation
            End Site
            {
              OFFSET 1 0 0
            }
          }
          JOINT rightEye
          {
            OFFSET -3.6576 8.04674 8.04672
            CHANNELS 3 Zrotation Xrotation Yrotation
            End Site
            {
              OFFSET 1 0 0
            }
          }
        }
      }
      JOINT rCollar
      {
        OFFSET -2.68224 19.2634 -4.8768
        CHANNELS 3 Zrotation Xrotation Yrotation
        JOINT rShldr
        {
          OFFSET -8.77824 -1.95073 1.46304
          CHANNELS 3 Zrotation Xrotation Yrotation
          JOINT rForeArm
          {
            OFFSET -28.1742 -1.7115 0.48768
            CHANNELS 3 Zrotation Xrotation Yrotation
            JOINT rHand
            {
              OFFSET -22.5879 0.773209 7.07136
              CHANNELS 3 Zrotation Xrotation Yrotation
              JOINT rThumb1
              {
                OFFSET -1.2192 -0.487915 3.41376
                CHANNELS 3 Zrotation Xrotation Yrotation
                JOINT rThumb2
                {
                  OFFSET -3.37035 -0.52449 3.41376
                  CHANNELS 3 Zrotation Xrotation Yrotation
                  End Site
                  {
                    OFFSET -1.78271 -1.18214 1.43049
                  }
                }
              }
              JOINT rIndex1
              {
                OFFSET -7.75947 0.938293 5.60832
                CHANNELS 3 Zrotation Xrotation Yrotation
                JOINT rIndex2
                {
                  OFFSET -2.54057 -0.884171 1.56538
                  CHANNELS 3 Zrotation Xrotation Yrotation
                  End Site
                  {
                    OFFSET -1.62519 -0.234802 1.16502
                  }
                }
              }
              JOINT rMid1
              {
                OFFSET -8.24714 1.18213 3.41376
                CHANNELS 3 Zrotation Xrotation Yrotation
                JOINT rMid2
                {
                  OFFSET -3.10165 -0.590103 1.0647
                  CHANNELS 3 Zrotation Xrotation Yrotation
                  End Site
                  {
                    OFFSET -2.48547 -0.328903 0.83742
                  }
                }
              }
              JOINT rRing1
              {
                OFFSET -8.82822 0.546677 1.51678
                CHANNELS 3 Zrotation Xrotation Yrotation
                JOINT rRing2
                {
                  OFFSET -2.60934 -0.819778 -0.0198488
                  CHANNELS 3 Zrotation Xrotation Yrotation
                  End Site
                  {
                    OFFSET -2.33842 -0.294052 0.168128
                  }
                }
              }
              JOINT rPinky1
              {
                OFFSET -8.27202 -0.0477905 -0.4584
                CHANNELS 3 Zrotation Xrotation Yrotation
                JOINT rPinky2
                {
                  OFFSET -1.82734 -0.647385 -0.700984
                  CHANNELS 3 Zrotation Xrotation Yrotation
                  End Site
                  {
                    OFFSET -1.69225 -0.51767 -0.607171
                  }
                }
              }
            }
          }
        }
      }
      JOINT lCollar
      {
        OFFSET 2.68224 19.2634 -4.8768
        CHANNELS 3 Zrotation Xrotation Yrotation
        JOINT lShldr
        {
          OFFSET 8.77824 -1.95073 1.46304
          CHANNELS 3 Zrotation Xrotation Yrotation
          JOINT lForeArm
          {
            OFFSET 28.1742 -1.7115 0.48768
            CHANNELS 3 Zrotation Xrotation Yrotation
            JOINT lHand
            {
              OFFSET 22.5879 0.773209 7.07136
              CHANNELS 3 Zrotation Xrotation Yrotation
              JOINT lThumb1
              {
                OFFSET 1.2192 -0.487915 3.41376
                CHANNELS 3 Zrotation Xrotation Yrotation
                JOINT lThumb2
                {
                  OFFSET 3.37035 -0.52449 3.41376
                  CHANNELS 3 Zrotation Xrotation Yrotation
                  End Site
                  {
                    OFFSET 1.78271 -1.18214 1.43049
                  }
                }
              }
              JOINT lIndex1
              {
                OFFSET 7.75947 0.938293 5.60832
                CHANNELS 3 Zrotation Xrotation Yrotation
                JOINT lIndex2
                {
                  OFFSET 2.54057 -0.884171 1.56538
                  CHANNELS 3 Zrotation Xrotation Yrotation
                  End Site
                  {
                    OFFSET 1.62519 -0.234802 1.16502
                  }
                }
              }
              JOINT lMid1
              {
                OFFSET 8.24714 1.18213 3.41376
                CHANNELS 3 Zrotation Xrotation Yrotation
                JOINT lMid2
                {
                  OFFSET 3.10165 -0.590103 1.0647
                  CHANNELS 3 Zrotation Xrotation Yrotation
                  End Site
                  {
                    OFFSET 2.48547 -0.328903 0.83742
                  }
                }
              }
              JOINT lRing1
              {
                OFFSET 8.82822 0.546677 1.51678
                CHANNELS 3 Zrotation Xrotation Yrotation
                JOINT lRing2
                {
                  OFFSET 2.60934 -0.819778 -0.0198488
                  CHANNELS 3 Zrotation Xrotation Yrotation
                  End Site
                  {
                    OFFSET 2.33842 -0.294052 0.168128
                  }
                }
              }
              JOINT lPinky1
              {
                OFFSET 8.27202 -0.0477905 -0.4584
                CHANNELS 3 Zrotation Xrotation Yrotation
                JOINT lPinky2
                {
                  OFFSET 1.82734 -0.647385 -0.700984
                  CHANNELS 3 Zrotation Xrotation Yrotation
                  End Site
                  {
                    OFFSET 1.69225 -0.51767 -0.607171
                  }
                }
              }
            }
          }
        }
      }
    }
  }
  JOINT rButtock
  {
    OFFSET -8.77824 4.35084 1.2192
    CHANNELS 3 Zrotation Xrotation Yrotation
    JOINT rThigh
    {
      OFFSET 0 -1.70687 -2.19456
      CHANNELS 3 Zrotation Xrotation Yrotation
      JOINT rShin
      {
        OFFSET 0 -36.8199 0.73152
        CHANNELS 3 Zrotation Xrotation Yrotation
        JOINT rFoot
        {
          OFFSET 0.73152 -45.1104 -5.12064
          CHANNELS 3 Zrotation Xrotation Yrotation
          End Site
          {
            OFFSET -1.1221 -3.69964 12.103
          }
        }
      }
    }
  }
  JOINT lButtock
  {
    OFFSET 8.77824 4.35084 1.2192
    CHANNELS 3 Zrotation Xrotation Yrotation
    JOINT lThigh
    {
      OFFSET 0 -1.70687 -2.19456
      CHANNELS 3 Zrotation Xrotation Yrotation
      JOINT lShin
      {
        OFFSET 0 -36.8199 0.73152
        CHANNELS 3 Zrotation Xrotation Yrotation
        JOINT lFoot
        {
          OFFSET -0.73152 -45.1104 -5.12064
          CHANNELS 3 Zrotation Xrotation Yrotation
          End Site
          {
            OFFSET 1.1221 -3.69964 12.103
          }
        }
      }
    }
  }
}
MOTION
Frames:	5
Frame Time:	0.03333
-9.2418 59.8423 -51.8132 -20.659967 -24.942868 13.996502 14.916621 9.077547 38.762622 -3.460435 -7.22766 -27.396079 10.737627 23.774978 104.795058 -30.909652 14.89747 -95.807742 0.00301 0.0 0.001856 0.002616 -0.0 -0.003752 -158.729782 -33.947825 167.63634 -48.384555 9.925663 -8.709909 -128.029843 -9.620111 -149.841056 10.949464 -22.507388 5.632774 -0.343003 0.338452 0.053668 -134.56366 -35.141302 117.416329 -13.073395 17.933199 8.694775 2.828544 9.130566 1.11527 2.409055 -7.262748 -1.226315 -164.570527 -8.685754 143.717054 0.004264 1.927823 0.604896 -156.419585 -17.468012 173.908539 -149.976993 28.751958 -145.889362 -75.070281 -53.048344 -74.420732 -3.341008 -27.647783 5.404314 77.39222 -53.413719 150.053355 12.237795 -56.702949 74.03454 -144.400843 -49.677076 -129.449191 163.953668 -1.630964 -89.496914 -43.772649 -62.996706 -35.617948 2.83082 4.445624 -1.67332 22.925504 35.547294 -16.608154 6.935364 17.74227 -4.537206 24.92586 49.036939 -20.507754 0.039601 5.446809 -1.714647 156.154669 -5.843512 -172.57337 137.683039 -7.949619 134.942789 121.601177 -34.690489 119.880121 -0.006943 -3e-06 -0.006024 0.464473 5.52064 -6.602888 -4.181976 39.909685 -50.665006 -135.017015 -27.93856 -8.075554 0.001596 -3e-06 0.000618 71.28109 -63.317346 144.977311 76.783638 1.455359 -98.948404 -145.819627 -36.371656 -11.175419
-9.229099999999999 59.8375 -51.7978 -20.635031 -24.893078 14.033404 14.199226 7.838813 74.400191 -5.612243 -4.310744 -63.052261 -10.252953 26.443129 -98.155848 34.319974 18.419416 100.386598 0.000482 -0.0 -0.000767 0.000482 -0.0 -0.000767 0.79709 -72.257079 -17.833625 -74.589738 -34.728053 -88.888785 12.081427 -5.32702 -75.116364 164.27548 -24.343861 143.137865 -3.23592 3.161918 0.584119 9.135088 -11.261162 -4.834287 -126.821823 19.8145 106.72772 -162.479428 -9.995246 117.765197 -12.45122 28.349137 8.82944 -172.339469 -32.31458 144.015158 -145.092644 4.743139 179.37995 -148.19093 -44.015442 -170.276583 -58.882073 -51.084249 -57.51346 -120.174066 -36.814812 -119.565339 -1.597115 -10.879455 2.266388 97.600744 -31.403975 179.674844 -136.618008 47.558262 122.568052 65.715636 78.020114 -51.195594 15.622039 14.319762 -4.304468 -19.62362 -20.688009 2.681592 146.369409 -8.080714 -119.166794 1.740505 21.904405 4.398089 164.652004 -19.326652 -144.737209 -9.341348 -18.571243 1.108998 1.472555 -21.143243 7.012187 -12.813494 -42.845408 5.748385 23.353176 -36.314899 22.456754 132.691741 -21.883687 131.304844 -0.000658 6.7e-05 -0.000731 0.305275 5.508405 -0.18168 2.77881 46.696872 -121.804487 158.283244 32.369538 -57.958496 0.000973 -0.000926 0.002754 73.885679 -61.4575 -27.383988 -76.856556 2.504126 71.513166 -144.401637 -40.548147 -15.768358
-9.2165 59.8304 -51.7873 -20.609186 -24.852076 14.073958 14.110664 7.108583 91.448333 -5.932728 -2.633705 -80.089918 10.311773 20.100049 83.816831 -30.182645 3.490287 -77.736424 -0.003284 -0.0 0.001561 -0.003284 -0.0 0.001561 -20.169987 50.625969 22.291083 72.249735 -5.19267 37.003962 169.973953 8.175873 104.585273 166.301122 -19.158669 144.436383 -162.677658 -0.364732 89.322083 57.725684 -63.530708 44.845447 -96.611997 39.267882 81.461601 -109.842003 47.868999 83.388766 2.707096 -8.187487 -1.359484 -137.344343 45.642858 125.62316 -0.072476 6.735251 2.121656 -156.873805 -19.63738 174.185921 -132.387581 -18.2759 -129.907353 -151.299824 25.187426 -144.582299 79.342529 68.384305 -82.428606 -82.15194 -19.171834 -89.89632 162.317587 38.640784 -108.964707 -142.941753 -50.864813 -128.169575 155.403919 6.647435 -87.815433 -72.593378 -60.070347 -53.369917 60.764272 42.715187 -49.313706 -72.954332 -61.322566 -28.07193 1.346625 3.835059 -0.777521 6.537923 24.698813 -5.497791 145.082771 -2.418248 178.368488 -11.580695 61.048522 1.190002 -1.108758 2.971929 -1.022854 1.318671 -9.560527 3.266632 -179.950967 75.748402 -0.036407 -178.975915 78.932192 178.48815 -6.805789 -38.407235 169.503953 -108.536096 17.209409 14.390709 -0.017571 -0.00064 -0.012914 72.263675 -63.666393 168.022069 85.216951 -14.31483 156.686508 -10.645872 47.911533 108.791781
-9.2052 59.8197 -51.7887 -20.584724 -24.890623 14.127771 14.252232 6.341283 110.16381 -5.71519 -0.771063 -98.750567 -10.784971 22.980619 -77.543345 34.845699 7.255684 82.789978 -0.001342 0.0 -0.000718 -0.001342 0.0 -0.000718 -156.1078 -7.65081 162.696876 13.093924 -76.92026 62.622602 -168.07136 -79.135575 -130.100093 -7.236847 32.463153 2.251129 35.945799 -32.51197 5.364909 -139.709397 -16.442002 122.234269 -110.74232 32.840052 93.714121 -142.715784 24.291221 108.704184 -10.425966 24.785085 7.202665 7.960089 -14.231763 -1.313569 -145.10751 -0.931698 -178.835472 11.004009 9.15326 -7.899466 14.942558 51.994332 11.870161 -12.240406 -27.490509 -12.855791 -4.137363 -55.12618 11.008272 -69.715507 14.302112 39.13408 46.421242 44.534074 -54.868868 -7.132464 -6.687911 -4.807885 -25.676123 -24.621655 -1.746267 19.498763 15.363195 -1.583411 -86.150081 -75.262307 -37.702699 176.735874 -44.348274 -109.369075 9.692183 23.406092 -6.628661 166.7848 -15.922087 -144.157037 145.120436 0.379213 179.248711 -11.842362 54.686017 2.406091 142.437287 3.926186 139.360479 146.394854 8.838417 141.016583 -0.000273 -0.000982 0.000589 0.183236 5.404953 -1.170389 16.528455 39.456521 68.403756 -42.624525 -17.144348 -122.728046 -179.998376 75.748881 -0.000947 -154.932234 -4.917955 86.742721 80.42955 -13.12907 -36.38516 -113.742027 24.470095 23.122093
-9.2068 59.810399999999994 -51.793800000000005 -20.610116 -24.982735 14.178982 18.489812 8.524503 -55.844063 5.182995 -5.306497 67.249447 3.52167 13.402027 29.842884 -11.853709 -19.911992 -26.149977 -0.001581 -0.0 0.001256 0.003723 -0.0 -0.004705 -5.458193 23.789352 6.576963 64.704846 24.588561 14.140673 23.140526 -33.929239 53.233963 -16.920469 52.394492 7.043389 146.618832 -41.209712 76.40296 148.789359 -76.212607 116.927891 10.236477 -18.098963 -4.572378 168.683726 -48.042368 98.538309 166.922268 -70.965374 132.766524 6.268506 -9.725701 -0.77268 0.003013 0.574064 0.181125 -155.722297 -5.222871 172.485333 -143.696322 7.545996 -140.50192 -158.259967 45.182546 -146.652844 158.734937 -34.048062 -167.655263 54.326691 -11.860091 33.317263 176.571143 12.759823 152.739639 8.291644 40.778794 -3.659174 165.679705 -3.352536 -89.688376 8.084472 -46.243506 -9.206011 4.517588 6.948521 -2.732646 3.115678 18.037091 -4.376094 -175.286711 -64.127255 -139.154397 -11.68597 -25.967421 1.226868 145.122948 0.687662 179.345436 145.399432 -50.175141 167.655593 138.861194 -5.255693 136.050939 -18.56112 47.693119 -6.317726 179.994018 75.748299 0.004253 -179.129947 81.082673 -1.588144 0.906219 45.063293 -102.566883 -143.486894 -68.177361 -46.813391 -179.989307 75.749942 -0.007883 -153.017849 -5.945556 -143.382967 -82.833676 -36.320974 175.90772 -4.8381 -60.776984 -99.185049
